<svg width="186" height="80" viewBox="0 0 186 80" fill="none" xmlns="http://www.w3.org/2000/svg">
<g clip-path="url(#clip0_7263_9798)">
<path d="M103.547 42.1323H108.733V45.4348C107.3 46.1135 105.555 46.4479 103.497 46.4479C101.308 46.4479 99.6228 45.9008 98.4526 44.7966C97.2823 43.6924 96.6972 42.1019 96.6972 40.0252C96.6972 37.9484 97.2319 36.4289 98.3113 35.274C99.3908 34.1191 100.944 33.5518 102.992 33.5518C104.344 33.5518 105.434 33.7848 106.271 34.2609C107.108 34.7371 107.704 35.4665 108.077 36.4694L111.82 35.9831C111.315 34.3116 110.337 32.9744 108.884 31.9715C107.431 30.9686 105.504 30.4722 103.093 30.4722C101.065 30.4722 99.2899 30.8571 97.7464 31.6169C96.2029 32.3767 95.0023 33.4708 94.1448 34.9093C93.2873 36.3377 92.8535 38.0599 92.8535 40.0758C92.8535 42.0918 93.2772 43.7532 94.1347 45.1512C94.9822 46.5593 96.2029 47.6331 97.7968 48.3828C99.3908 49.1324 101.287 49.5174 103.497 49.5174C105.151 49.5174 106.735 49.3046 108.248 48.869C109.762 48.4334 111.083 47.8256 112.193 47.0253V39.2553H103.547V42.1222V42.1323Z" fill="#F0E0C1"/>
<path d="M141.369 30.938H123.341V34.0784H130.504V49.0613H134.236V34.0784H141.369V30.938Z" fill="#F0E0C1"/>
<path d="M181.47 30.938L174.842 45.0801L168.194 30.938H162.463V31.7687C163.27 32.0118 163.815 32.7615 163.815 33.6023V49.0613H167.276V36.2159L173.288 49.0613H176.194L182.206 36.0842V49.0613H185.717V30.938H181.44H181.47Z" fill="#F0E0C1"/>
<path d="M116.49 30.938H114.745V31.7687L114.967 31.8396C115.875 32.1131 116.49 32.9539 116.49 33.9062V49.0613H120.233V30.938H116.49Z" fill="#F0E0C1"/>
<path d="M152.315 30.938H148.138L139.795 49.0613H143.659L144.99 45.9817C148.41 43.9353 152.708 43.5099 154.242 43.4187L156.683 49.0613H160.678L152.315 30.938ZM146.806 41.7877L147.048 41.2406L150.186 34.1392L152.96 40.4606C151.437 40.6125 149.157 40.9671 146.796 41.7978L146.806 41.7877Z" fill="#F0E0C1"/>
<path d="M77.3375 36.2672C76.1673 37.6652 74.3312 39.6102 71.4459 42.1833C71.4257 42.2036 71.4156 42.2137 71.3954 42.234C71.3551 42.2745 71.3147 42.3049 71.2643 42.3454C69.2971 44.1081 67.3096 45.6277 65.4534 46.9143H65.4433C65.1305 47.1067 64.8279 47.2992 64.5152 47.4816C64.5152 47.4816 64.5152 47.4816 64.5051 47.4816C64.1419 47.6031 63.5568 47.6335 63.3953 46.6205C63.3853 46.5698 63.3752 46.5192 63.3752 46.4584C63.2642 45.3542 63.698 44.5944 64.0208 44.1993C64.0208 44.1993 64.0208 44.1993 64.0208 44.1892C64.1217 44.0879 64.2226 43.9866 64.3235 43.8853L64.3336 43.8751C69.0045 39.0632 73.2215 34.0486 75.1383 29.8951C75.1383 29.8951 75.1382 29.8749 75.1483 29.8749C75.1483 29.8749 75.1483 29.8749 75.1483 29.8647C76.3388 27.6361 76.6313 25.9544 76.5204 24.7185C76.5204 24.7185 76.5204 24.7151 76.5204 24.7084C76.5405 24.4855 76.7524 24.4247 76.8835 24.7286C76.8835 24.7286 76.8835 24.7388 76.8835 24.7489C77.1963 25.5694 77.4788 26.3799 77.731 27.1599C78.1143 28.3452 78.4271 29.4697 78.6591 30.4219C79.1837 32.4683 78.6793 34.626 77.3173 36.2469L77.3375 36.2672ZM79.8394 40.3801C79.4359 42.5278 73.6754 49.5786 64.3436 53.9448C63.7283 54.2284 63.3146 54.7856 63.1936 55.4542C63.1431 55.7683 63.0826 56.0823 63.0221 56.3862C62.9111 56.9029 63.4155 57.3486 63.9098 57.1764C68.5001 55.596 72.8986 52.9723 76.4699 50.2877C76.6818 50.1256 76.9643 49.9129 77.2568 49.6697C78.9012 48.3528 79.9504 46.3976 80.0816 44.2905C80.1118 43.8853 80.132 43.48 80.1421 43.0748C80.1421 42.7203 80.2228 41.1095 80.2228 40.522C80.2228 40.0458 79.9101 40.0154 79.8394 40.3801ZM76.4296 54.9274C74.2606 58.159 67.5215 61.9478 61.1053 63.3762C60.7219 63.4573 60.4092 63.7004 60.2276 64.0448C60.2276 64.0549 60.2276 64.0651 60.2175 64.0752C59.703 65.0275 60.5101 66.1621 61.5794 66C64.7674 65.5036 67.6022 64.4095 70.1747 63.1837C72.3841 62.1302 74.2404 60.4181 75.4005 58.2502C75.794 57.5512 76.5304 55.981 76.8533 55.2415C77.045 54.7653 76.6818 54.5729 76.4396 54.9376L76.4296 54.9274ZM70.5783 13.9904C69.3374 12.5316 67.9856 11.164 66.553 9.89767C66.9969 15.1655 65.2314 25.6201 59.8745 33.8764C59.592 34.312 58.9463 34.2715 58.7042 33.8156C58.5125 33.4611 58.3108 33.1065 58.0989 32.7519C57.988 32.5594 57.9678 32.3264 58.0586 32.1238C61.5895 24.1208 62.0838 14.9224 60.9943 8.48954C60.6614 6.49385 59.36 4.80206 57.534 3.92072C55.9804 3.17107 54.3662 2.51259 52.7016 1.96554C55.1329 7.09154 57.3423 17.6272 55.2237 27.2714C55.1128 27.7981 54.4469 27.9805 54.0736 27.5955C53.8113 27.3423 53.5491 27.089 53.2868 26.8459C53.1354 26.7041 53.0547 26.5116 53.0648 26.309C53.5289 17.6069 50.6537 8.83398 47.2438 3.0495C46.1946 1.25641 44.3182 0.131937 42.25 0.0306326C41.6044 0.000241325 40.9688 -0.0200195 40.3131 -0.0200195C39.3042 -0.0200195 38.2954 0.0306326 37.2966 0.111676C41.5035 4.26515 47.1227 12.8659 48.6864 22.196C48.7772 22.7633 48.1921 23.1989 47.6877 22.9355C47.3649 22.7734 47.042 22.6114 46.7192 22.4594C46.5477 22.3885 46.4266 22.2467 46.3661 22.0643C43.6624 14.1828 38.0533 7.41572 32.8577 3.26224C31.2032 1.93515 28.9737 1.56033 26.9762 2.26946C25.4831 2.79624 24.0203 3.4142 22.6079 4.10307C27.9749 6.50398 35.6119 11.8934 40.3736 19.2379C40.7065 19.7444 40.2828 20.3928 39.6876 20.3016C39.2639 20.2408 38.8301 20.1801 38.4063 20.1294C38.2449 20.1091 38.1037 20.0382 37.9927 19.9167C32.8275 14.3247 25.8564 10.546 19.8739 8.6415C17.8159 7.98302 15.5763 8.41863 13.942 9.82676C12.7616 10.8499 11.6317 11.9339 10.5724 13.0786C16.0504 13.3825 23.8891 15.1959 30.4769 19.2481C31.0115 19.5824 30.8602 20.4029 30.2347 20.5245C29.6597 20.6461 29.0847 20.7879 28.5096 20.95C28.3684 20.9905 28.2271 20.9804 28.096 20.9297C21.9622 18.5389 15.2535 17.8501 9.70483 18.2249C7.55599 18.3768 5.62911 19.5925 4.61018 21.497C3.87373 22.8748 3.21798 24.3031 2.65303 25.7721C7.18272 24.2626 13.5384 23.1685 19.9446 23.6751C20.7012 23.7358 20.7315 24.526 19.9446 25.0832C19.2585 25.5694 19.1173 25.7214 18.4515 26.3292C18.2699 26.4913 18.1387 26.6635 17.9168 26.6838C12.7313 27.2612 7.76785 28.8517 3.71231 30.8069C1.77534 31.7287 0.443666 33.5826 0.211633 35.71C0.0401296 37.2397 -0.0405776 38.7998 -0.0204008 40.3801C2.87497 37.9387 6.82963 35.3352 11.3291 33.4104C11.9243 33.147 12.3379 33.3496 12.1059 34.0689C11.9041 34.697 11.8637 34.8287 11.6721 35.4973C11.6317 35.6391 11.5308 35.7505 11.4199 35.8316C8.35298 37.9387 4.75142 41.687 2.72365 44.3817C1.47268 46.043 0.79676 48.4743 1.34153 50.4903C1.75516 52.0301 2.25958 53.5396 2.84471 54.9882C4.16629 52.4759 5.99229 49.6596 8.2521 46.9548C8.65563 46.4786 9.63421 46.7522 9.47279 47.36C8.63545 50.5713 7.05157 55.1503 6.81954 57.5512C6.61777 59.6178 6.57742 62.1909 7.81829 63.8625C8.77669 65.149 9.82589 66.3748 10.9356 67.5398C11.1374 65.3314 11.5611 62.8494 12.2269 60.2763C12.3883 59.6381 13.3165 59.6887 13.4073 60.3371C13.9319 63.9942 14.5775 67.5702 19.2081 72.6557C20.0354 73.5573 26.038 78.2578 34.482 79.6254C34.482 79.6254 34.5425 79.6355 34.5728 79.6457C36.1566 79.8989 37.8111 80.0408 39.5463 80.0002C39.3345 80.0002 39.1226 79.98 38.9108 79.98C39.2639 79.9901 39.6069 80.0002 39.9499 80.0002H40.0104C40.5148 80.0002 41.0092 80.0002 41.4934 79.98C41.7153 79.9698 41.9373 79.9597 42.1592 79.9496C42.2702 79.9496 42.3711 79.9395 42.4619 79.9293C51.2287 79.3316 58.6336 75.3706 63.3348 72.1086C63.3348 72.1086 63.4054 72.058 63.4458 72.0377H63.4559C66.7144 69.7584 68.6312 67.8539 68.7826 67.6816C66.4521 69.2417 59.6122 72.0681 54.8605 72.9292C53.1253 73.2432 51.4809 73.4762 49.9475 73.6181C30.719 75.3909 26.1994 64.217 25.1704 57.926C25.1704 57.8956 25.1704 57.8754 25.1603 57.8551C24.9282 55.8392 24.8374 53.6409 24.9081 51.2501C24.9282 50.6726 24.9484 50.0648 24.9686 49.4671C25.0089 48.525 25.0392 47.5626 25.0594 46.6002C25.0594 46.2355 25.0695 45.881 25.0695 45.5163C25.0695 45.3846 25.0695 45.2529 25.0695 45.1313C25.0392 43.6624 24.9585 42.3556 24.8274 41.1804C24.8274 41.1703 24.8274 41.1602 24.8274 41.1602C24.3431 36.6724 23.2334 34.1904 22.164 32.8026C22.1035 32.7215 22.1337 32.6101 22.2245 32.5696C22.8298 32.3062 23.4049 32.1137 23.9597 31.9719C24.1817 31.9212 24.4036 31.8706 24.6155 31.8301C24.6256 31.8301 24.6357 31.8301 24.6458 31.8301C24.8576 31.7997 25.0594 31.7693 25.2712 31.7591H25.3015C27.4503 31.5971 29.236 32.4683 31.1225 34.1702C34.3811 37.108 35.1579 42.5582 37.7203 46.428C38.3156 47.3195 38.9915 48.0995 39.7279 48.7783C41.5741 50.1256 43.733 50.5004 45.7104 50.3991C51.2893 50.1155 56.6563 45.2326 61.0447 39.4887C61.075 39.3975 61.1254 39.3164 61.1961 39.2354C61.2667 39.1645 61.3272 39.0936 61.3978 39.0227C67.007 31.5363 70.9314 22.7937 71.456 20.9297C71.6073 20.3624 71.7485 19.8052 71.8595 19.2683C72.253 17.4145 71.799 15.4694 70.5682 14.0309L70.5783 13.9904Z" fill="#F0E0C1"/>
<path d="M94.6294 59.4146C94.6294 59.4146 94.5688 59.3843 94.5688 59.3539L94.5991 57.115L94.5688 54.8762C94.5688 54.8762 94.5991 54.8154 94.6294 54.8154H96.2435C97.555 54.8154 98.6748 55.5246 98.6748 57.1454C98.6748 58.7663 97.5449 59.4146 96.2637 59.4146H94.6294ZM95.5878 58.665H96.3141C97.0506 58.665 97.6458 58.2294 97.6458 57.1353C97.6458 56.0412 97.0607 55.555 96.2839 55.555H95.5878C95.5878 55.555 95.5575 56.335 95.5575 57.0948C95.5575 57.8546 95.5878 58.665 95.5878 58.6751V58.665Z" fill="#F0E0C1"/>
<path d="M99.5928 59.4146C99.5928 59.4146 99.5322 59.3843 99.5322 59.3539L99.5625 57.115L99.5322 54.8762C99.5322 54.8762 99.5625 54.8154 99.5928 54.8154H102.68C102.68 54.8154 102.74 54.8458 102.74 54.8762V55.5043C102.74 55.5043 102.71 55.5651 102.68 55.5651H100.541L100.511 56.6186H102.478C102.478 56.6186 102.539 56.649 102.539 56.6794V57.3075C102.539 57.3075 102.508 57.3683 102.478 57.3683H100.511L100.541 58.6853H102.73C102.73 58.6853 102.791 58.7156 102.791 58.746V59.3741C102.791 59.3741 102.761 59.4349 102.73 59.4349H99.5827L99.5928 59.4146Z" fill="#F0E0C1"/>
<path d="M103.709 59.4146C103.709 59.4146 103.648 59.3843 103.648 59.3539L103.679 57.115L103.648 54.8762C103.648 54.8762 103.679 54.8154 103.709 54.8154H106.796C106.796 54.8154 106.857 54.8458 106.857 54.8762V55.5043C106.857 55.5043 106.826 55.5651 106.796 55.5651H104.657L104.627 56.6186H106.594C106.594 56.6186 106.655 56.649 106.655 56.6794V57.3075C106.655 57.3075 106.625 57.3683 106.594 57.3683H104.627L104.657 58.6853H106.846C106.846 58.6853 106.907 58.7156 106.907 58.746V59.3741C106.907 59.3741 106.877 59.4349 106.846 59.4349H103.699L103.709 59.4146Z" fill="#F0E0C1"/>
<path d="M108.662 57.4594V59.3436C108.662 59.3436 108.632 59.4044 108.602 59.4044H107.815C107.815 59.4044 107.754 59.374 107.754 59.3436L107.785 57.1048L107.754 54.866C107.754 54.866 107.785 54.8052 107.815 54.8052H109.026C109.026 54.8052 109.096 54.8356 109.106 54.8558L110.327 58.1685L111.477 54.8558C111.477 54.8558 111.527 54.8052 111.558 54.8052H112.688C112.688 54.8052 112.748 54.8356 112.748 54.866L112.718 57.1048L112.748 59.3436C112.748 59.3436 112.718 59.4044 112.688 59.4044H111.8C111.8 59.4044 111.739 59.374 111.739 59.3436V57.4594L111.77 56.3754V56.1627L110.66 59.3537C110.65 59.3841 110.609 59.4044 110.579 59.4044H109.913C109.913 59.4044 109.853 59.374 109.833 59.3537L108.612 56.0411V56.3855L108.652 57.4594H108.662Z" fill="#F0E0C1"/>
<path d="M113.767 59.4146C113.767 59.4146 113.707 59.3843 113.707 59.3539L113.737 57.115L113.707 54.8762C113.707 54.8762 113.737 54.8154 113.767 54.8154H116.854C116.854 54.8154 116.915 54.8458 116.915 54.8762V55.5043C116.915 55.5043 116.884 55.5651 116.854 55.5651H114.715L114.685 56.6186H116.652C116.652 56.6186 116.713 56.649 116.713 56.6794V57.3075C116.713 57.3075 116.683 57.3683 116.652 57.3683H114.685L114.715 58.6853H116.905C116.905 58.6853 116.965 58.7156 116.965 58.746V59.3741C116.965 59.3741 116.935 59.4349 116.905 59.4349H113.757L113.767 59.4146Z" fill="#F0E0C1"/>
<path d="M117.883 59.4146C117.883 59.4146 117.823 59.3843 117.823 59.3539L117.853 57.115L117.823 54.8762C117.823 54.8762 117.853 54.8154 117.883 54.8154H119.497C120.809 54.8154 121.929 55.5246 121.929 57.1454C121.929 58.7663 120.799 59.4146 119.518 59.4146H117.883ZM118.842 58.665H119.568C120.304 58.665 120.9 58.2294 120.9 57.1353C120.9 56.0412 120.315 55.555 119.538 55.555H118.842C118.842 55.555 118.811 56.335 118.811 57.0948C118.811 57.8546 118.842 58.665 118.842 58.6751V58.665Z" fill="#F0E0C1"/>
<path d="M125.661 59.4145C125.661 59.4145 125.601 59.3841 125.601 59.3537L125.641 57.1149L125.611 55.5548H124.34C124.34 55.5548 124.279 55.5244 124.279 55.494V54.866C124.279 54.866 124.31 54.8052 124.34 54.8052H127.891C127.891 54.8052 127.951 54.8356 127.951 54.866V55.494C127.951 55.494 127.921 55.5548 127.891 55.5548H126.63L126.6 57.1149L126.64 59.3537C126.64 59.3537 126.61 59.4145 126.579 59.4145H125.661Z" fill="#F0E0C1"/>
<path d="M130.716 59.5059C129.313 59.5059 128.405 58.5233 128.405 57.1151C128.405 55.707 129.313 54.7041 130.716 54.7041C132.118 54.7041 133.036 55.626 133.036 57.1151C133.036 58.5233 132.118 59.5059 130.716 59.5059ZM130.716 58.736C131.543 58.736 131.997 58.1282 131.997 57.1151C131.997 56.1021 131.543 55.474 130.705 55.474C129.868 55.474 129.424 56.092 129.424 57.1151C129.424 58.1383 129.888 58.736 130.716 58.736Z" fill="#F0E0C1"/>
<path d="M137.747 59.4146H135.74C135.74 59.4146 135.679 59.3843 135.679 59.3539L135.709 57.115L135.679 54.8762C135.679 54.8762 135.709 54.8154 135.74 54.8154H137.707C138.645 54.8154 139.341 55.1599 139.341 55.95C139.341 56.5072 139.049 56.8213 138.554 56.9732C139.16 57.115 139.462 57.5203 139.462 58.0268C139.462 59.0297 138.615 59.4248 137.737 59.4248L137.747 59.4146ZM136.678 56.6592H137.727C138.111 56.6592 138.353 56.4667 138.353 56.0919C138.353 55.6866 138.07 55.5043 137.727 55.5043H136.698L136.668 56.6592H136.678ZM136.698 58.7156H137.727C138.141 58.7156 138.464 58.5536 138.464 58.0166C138.464 57.5304 138.131 57.3582 137.727 57.3582H136.678L136.708 58.7156H136.698Z" fill="#F0E0C1"/>
<path d="M140.37 59.4146C140.37 59.4146 140.31 59.3843 140.31 59.3539L140.34 57.115L140.31 54.8762C140.31 54.8762 140.34 54.8154 140.37 54.8154H143.457C143.457 54.8154 143.518 54.8458 143.518 54.8762V55.5043C143.518 55.5043 143.487 55.5651 143.457 55.5651H141.318L141.288 56.6186H143.255C143.255 56.6186 143.316 56.649 143.316 56.6794V57.3075C143.316 57.3075 143.286 57.3683 143.255 57.3683H141.288L141.318 58.6853H143.508C143.508 58.6853 143.568 58.7156 143.568 58.746V59.3741C143.568 59.3741 143.538 59.4349 143.508 59.4349H140.36L140.37 59.4146Z" fill="#F0E0C1"/>
<path d="M148.138 59.5058C146.917 59.5058 146.282 58.8676 146.282 57.7026V56.4566L146.262 54.8762C146.262 54.8458 146.292 54.8154 146.322 54.8154H147.25C147.25 54.8154 147.311 54.8458 147.311 54.8762L147.291 56.4363V57.7026C147.291 58.3611 147.553 58.7258 148.148 58.7258C148.794 58.7258 149.076 58.3611 149.076 57.7026V56.4566L149.056 54.8762C149.056 54.8762 149.086 54.8154 149.117 54.8154H149.944C149.944 54.8154 150.005 54.8458 150.005 54.8762L149.984 56.4566V57.7026C149.984 58.8777 149.379 59.5058 148.158 59.5058H148.138Z" fill="#F0E0C1"/>
<path d="M151.851 57.3783V59.3537C151.851 59.3537 151.821 59.4145 151.79 59.4145H150.973C150.973 59.4145 150.913 59.3841 150.913 59.3537L150.943 57.1149L150.913 54.8761C150.913 54.8761 150.943 54.8153 150.973 54.8153H152.063C152.063 54.8153 152.133 54.8356 152.143 54.866L153.979 58.0976L153.939 57.0643V54.866C153.939 54.866 153.969 54.8052 154 54.8052H154.817C154.817 54.8052 154.877 54.8356 154.877 54.866L154.847 57.1048L154.877 59.3436C154.877 59.3436 154.847 59.4044 154.817 59.4044H153.687C153.687 59.4044 153.616 59.3841 153.606 59.3537L151.81 56.1221V56.2944L151.851 57.3682V57.3783Z" fill="#F0E0C1"/>
<path d="M155.937 59.4146C155.937 59.4146 155.876 59.3843 155.876 59.3539L155.906 57.115L155.876 54.8762C155.876 54.8762 155.906 54.8154 155.937 54.8154H156.824C156.824 54.8154 156.885 54.8458 156.885 54.8762L156.855 57.115L156.885 59.3539C156.885 59.3539 156.855 59.4146 156.824 59.4146H155.937Z" fill="#F0E0C1"/>
<path d="M160.446 59.3537C160.446 59.3537 160.396 59.4145 160.365 59.4145H159.185C159.185 59.4145 159.125 59.3841 159.104 59.3537L157.642 54.866C157.642 54.866 157.642 54.8052 157.682 54.8052H158.671C158.671 54.8052 158.741 54.8356 158.751 54.866L159.841 58.5433L160.9 54.866C160.9 54.866 160.951 54.8052 160.981 54.8052H161.848C161.848 54.8052 161.899 54.8356 161.889 54.866L160.456 59.3537H160.446Z" fill="#F0E0C1"/>
<path d="M162.656 59.4146C162.656 59.4146 162.595 59.3843 162.595 59.3539L162.625 57.115L162.595 54.8762C162.595 54.8762 162.625 54.8154 162.656 54.8154H165.743C165.743 54.8154 165.803 54.8458 165.803 54.8762V55.5043C165.803 55.5043 165.773 55.5651 165.743 55.5651H163.604L163.574 56.6186H165.541C165.541 56.6186 165.602 56.649 165.602 56.6794V57.3075C165.602 57.3075 165.571 57.3683 165.541 57.3683H163.574L163.604 58.6853H165.793C165.793 58.6853 165.854 58.7156 165.854 58.746V59.3741C165.854 59.3741 165.824 59.4349 165.793 59.4349H162.656V59.4146Z" fill="#F0E0C1"/>
<path d="M168.81 58.3813L168.356 57.7026H167.7L167.72 59.3539C167.72 59.3539 167.69 59.4146 167.66 59.4146H166.762C166.762 59.4146 166.701 59.3843 166.701 59.3539L166.731 57.115L166.701 54.8762C166.701 54.8762 166.731 54.8154 166.762 54.8154H168.618C169.768 54.8154 170.424 55.3017 170.424 56.2641C170.424 56.9428 170.051 57.4088 169.405 57.6013L170.545 59.364C170.545 59.364 170.545 59.4146 170.515 59.4146H169.475C169.475 59.4146 169.405 59.3944 169.385 59.364L168.8 58.3915L168.81 58.3813ZM168.668 55.5347H167.72L167.7 56.9732H168.699C169.122 56.9732 169.475 56.7706 169.475 56.2742C169.475 55.7778 169.183 55.5347 168.668 55.5347Z" fill="#F0E0C1"/>
<path d="M173.208 59.5162C172.008 59.5162 171.18 59.0097 171.13 57.9156C171.13 57.8852 171.16 57.8548 171.19 57.8548H172.108C172.108 57.8548 172.169 57.8852 172.179 57.9156C172.25 58.4322 172.472 58.7665 173.228 58.7665C173.823 58.7665 174.156 58.5943 174.156 58.1587C174.156 57.1153 171.231 57.946 171.231 56.1124C171.231 55.2513 171.897 54.7144 173.067 54.7144C174.136 54.7144 174.883 55.1297 175.014 56.1124C175.014 56.1427 174.994 56.1731 174.963 56.1731H174.035C174.035 56.1731 173.975 56.1427 173.965 56.1124C173.914 55.697 173.581 55.464 173.026 55.464C172.552 55.464 172.219 55.6261 172.219 56.0111C172.219 56.9937 175.155 56.1934 175.155 58.0169C175.155 58.9894 174.409 59.5162 173.208 59.5162Z" fill="#F0E0C1"/>
<path d="M176.073 59.4146C176.073 59.4146 176.013 59.3843 176.013 59.3539L176.043 57.115L176.013 54.8762C176.013 54.8762 176.043 54.8154 176.073 54.8154H176.961C176.961 54.8154 177.022 54.8458 177.022 54.8762L176.991 57.115L177.022 59.3539C177.022 59.3539 176.991 59.4146 176.961 59.4146H176.073Z" fill="#F0E0C1"/>
<path d="M179.231 59.4145C179.231 59.4145 179.17 59.3841 179.17 59.3537L179.211 57.1149L179.18 55.5548H177.909C177.909 55.5548 177.849 55.5244 177.849 55.494V54.866C177.849 54.866 177.879 54.8052 177.909 54.8052H181.46C181.46 54.8052 181.521 54.8356 181.521 54.866V55.494C181.521 55.494 181.491 55.5548 181.46 55.5548H180.199L180.169 57.1149L180.209 59.3537C180.209 59.3537 180.179 59.4145 180.149 59.4145H179.221H179.231Z" fill="#F0E0C1"/>
<path d="M184.477 59.3539C184.477 59.3539 184.447 59.4146 184.416 59.4146H183.518C183.518 59.4146 183.458 59.3843 183.458 59.3539L183.478 57.8951L181.935 54.8661C181.935 54.8661 181.935 54.8154 181.965 54.8154H182.984C182.984 54.8154 183.054 54.8357 183.064 54.8661L183.993 56.9833L184.941 54.8661C184.941 54.8661 184.991 54.8154 185.022 54.8154H185.95C185.95 54.8154 186 54.8458 185.98 54.8661L184.437 57.8951L184.457 59.3539H184.477Z" fill="#F0E0C1"/>
</g>
<defs>
<clipPath id="clip0_7263_9798">
<rect width="186" height="80" fill="white"/>
</clipPath>
</defs>
</svg>
