<?xml version="1.0" encoding="utf-8"?>
<!-- Generator: Adobe Illustrator 23.0.1, SVG Export Plug-In . SVG Version: 6.00 Build 0)  -->
<svg version="1.1" id="Layer_1" xmlns="http://www.w3.org/2000/svg" xmlns:xlink="http://www.w3.org/1999/xlink" x="0px" y="0px"
	 viewBox="0 0 285.7 225.78" style="enable-background:new 0 0 285.7 225.78;" xml:space="preserve">
<style type="text/css">
	.st0{fill:#FFFFFF;}
	.st1{fill:#0078A9;}
</style>
<g>
	<g>
		<path class="st0" d="M231.61,225.78H54.09C24.26,225.78,0,201.52,0,171.69V54.09C0,24.26,24.26,0,54.09,0h177.52
			c29.83,0,54.09,24.26,54.09,54.09v117.6C285.7,201.52,261.44,225.78,231.61,225.78z"/>
		<path class="st1" d="M231.61,216.26H54.09c-24.51,0-44.57-20.05-44.57-44.57V54.09c0-24.51,20.06-44.57,44.57-44.57h177.52
			c24.51,0,44.57,20.06,44.57,44.57v117.6C276.18,196.21,256.13,216.26,231.61,216.26z"/>
		<path class="st0" d="M233.51,76.87c10.66-3.15,21.5,0.11,30.09,7.25V61.21c-27.8-4.41-42.37-1.41-53.48,5.49
			c-9.02,5.76-12.84,13.62-12.84,13.62s-0.2,0.42-0.53,1.17c-1.46-57.97-36.93-52.92-79.26-52.91c-11.87,0-23.84,0-23.84,0v49.96
			c-7.03-20.68-28.76-18.45-52.01-18.45c-8.42,0-19.55,0-19.55,0v105.69h32.02c-5.34-1.86-8.05-6.49-8.05-13.22v-29.04l9.24,9.24
			c4.07,1,7.64,0.89,7.64,0.89c8.84-0.49,24.73-3.91,30.71-21.83v85.51h38.09c-5.32-1.85-8.03-6.4-8.03-13.1V126.8l14.44,14.39
			c4.66,1.67,8.09,1.95,12.03,1.77c11.11-0.7,30.14-5.39,40.1-25.48c0.82,18.89,7.01,37.83,26.17,45.28
			c8.43,3.45,18.02,4.41,27.99,3.64c6.51-0.19,12.84-0.77,19.17-1.91v-51.77l-29.18,0.01c5.34,1.86,8.05,6.25,8.05,12.98v23.58
			c-6.65,2.08-15.64,0.03-20.66-6.46c-6.34-8.19-7.48-31.25-4.79-46.98C218.56,87.98,225.29,79.3,233.51,76.87z M57,119.42
			c-7.74,0-10.95-3.37-10.95-3.37v-38c0-3.24,2.34-5.46,5.86-5.87c3.78-0.44,20.94-3.18,20.94,22.27
			C72.85,118.27,62.37,119.42,57,119.42z M142.93,123.31c-11.69,0-19.22-5.47-19.22-5.47V54.81c0-5.26,6.22-8.87,11.54-9.53
			c5.7-0.71,31.96-4.67,31.96,36.64C167.21,119.16,149.51,123.31,142.93,123.31z"/>
	</g>
</g>
</svg>
